<svg aria-roledescription="sequence" role="graphics-document document" viewBox="-208.5 -10 1783.5 2377" style="max-width: 1783.5px; background: rgb(23, 23, 25);" xmlns="http://www.w3.org/2000/svg" width="100%" id="export-svg"><style xmlns="http://www.w3.org/1999/xhtml">@import url("https://cdnjs.cloudflare.com/ajax/libs/font-awesome/6.2.0/css/all.min.css"); p {margin: 0;}</style><g><rect class="actor actor-bottom" ry="3" rx="3" name="DB" height="65" width="150" stroke="#666" fill="#eaeaea" y="2291" x="1375"/><text class="actor actor-box" alignment-baseline="central" dominant-baseline="central" style="text-anchor: middle; font-size: 16px; font-weight: 400;" y="2323.5" x="1450"><tspan dy="0" x="1450">Database</tspan></text></g><g><rect class="actor actor-bottom" ry="3" rx="3" name="S" height="65" width="150" stroke="#666" fill="#eaeaea" y="2291" x="951"/><text class="actor actor-box" alignment-baseline="central" dominant-baseline="central" style="text-anchor: middle; font-size: 16px; font-weight: 400;" y="2323.5" x="1026"><tspan dy="0" x="1026">Server</tspan></text></g><g><rect class="actor actor-bottom" ry="3" rx="3" name="C" height="65" width="150" stroke="#666" fill="#eaeaea" y="2291" x="0"/><text class="actor actor-box" alignment-baseline="central" dominant-baseline="central" style="text-anchor: middle; font-size: 16px; font-weight: 400;" y="2323.5" x="75"><tspan dy="0" x="75">Client</tspan></text></g><g><line data-id="DB" data-et="life-line" name="DB" stroke="#999" stroke-width="0.5px" class="actor-line 200" y2="2291" x2="1450" y1="65" x1="1450" id="actor8"/><g data-id="DB" data-et="participant" id="root-8"><rect class="actor actor-top" ry="3" rx="3" name="DB" height="65" width="150" stroke="#666" fill="#eaeaea" y="0" x="1375"/><text class="actor actor-box" alignment-baseline="central" dominant-baseline="central" style="text-anchor: middle; font-size: 16px; font-weight: 400;" y="32.5" x="1450"><tspan dy="0" x="1450">Database</tspan></text></g></g><g><line data-id="S" data-et="life-line" name="S" stroke="#999" stroke-width="0.5px" class="actor-line 200" y2="2291" x2="1026" y1="65" x1="1026" id="actor7"/><g data-id="S" data-et="participant" id="root-7"><rect class="actor actor-top" ry="3" rx="3" name="S" height="65" width="150" stroke="#666" fill="#eaeaea" y="0" x="951"/><text class="actor actor-box" alignment-baseline="central" dominant-baseline="central" style="text-anchor: middle; font-size: 16px; font-weight: 400;" y="32.5" x="1026"><tspan dy="0" x="1026">Server</tspan></text></g></g><g><line data-id="C" data-et="life-line" name="C" stroke="#999" stroke-width="0.5px" class="actor-line 200" y2="2291" x2="75" y1="65" x1="75" id="actor6"/><g data-id="C" data-et="participant" id="root-6"><rect class="actor actor-top" ry="3" rx="3" name="C" height="65" width="150" stroke="#666" fill="#eaeaea" y="0" x="0"/><text class="actor actor-box" alignment-baseline="central" dominant-baseline="central" style="text-anchor: middle; font-size: 16px; font-weight: 400;" y="32.5" x="75"><tspan dy="0" x="75">Client</tspan></text></g></g><style>#export-svg{font-family:arial,sans-serif;font-size:14px;fill:#ccc;}@keyframes edge-animation-frame{from{stroke-dashoffset:0;}}@keyframes dash{to{stroke-dashoffset:0;}}#export-svg .edge-animation-slow{stroke-dasharray:9,5!important;stroke-dashoffset:900;animation:dash 50s linear infinite;stroke-linecap:round;}#export-svg .edge-animation-fast{stroke-dasharray:9,5!important;stroke-dashoffset:900;animation:dash 20s linear infinite;stroke-linecap:round;}#export-svg .error-icon{fill:hsl(20, 1.5873015873%, 12.3529411765%);}#export-svg .error-text{fill:rgb(222.9999999999, 223.6666666666, 223.9999999999);stroke:rgb(222.9999999999, 223.6666666666, 223.9999999999);}#export-svg .edge-thickness-normal{stroke-width:1px;}#export-svg .edge-thickness-thick{stroke-width:3.5px;}#export-svg .edge-pattern-solid{stroke-dasharray:0;}#export-svg .edge-thickness-invisible{stroke-width:0;fill:none;}#export-svg .edge-pattern-dashed{stroke-dasharray:3;}#export-svg .edge-pattern-dotted{stroke-dasharray:2;}#export-svg .marker{fill:#cccccc;stroke:#cccccc;}#export-svg .marker.cross{stroke:#cccccc;}#export-svg svg{font-family:arial,sans-serif;font-size:14px;}#export-svg p{margin:0;}#export-svg .actor{stroke:#cccccc;fill:#2a2020;}#export-svg text.actor&gt;tspan{fill:#e0dfdf;stroke:none;}#export-svg .actor-line{stroke:#cccccc;}#export-svg .messageLine0{stroke-width:1.5;stroke-dasharray:none;stroke:#ccc;}#export-svg .messageLine1{stroke-width:1.5;stroke-dasharray:2,2;stroke:#ccc;}#export-svg #arrowhead path{fill:#ccc;stroke:#ccc;}#export-svg .sequenceNumber{fill:#333333;}#export-svg #sequencenumber{fill:#ccc;}#export-svg #crosshead path{fill:#ccc;stroke:#ccc;}#export-svg .messageText{fill:#ccc;stroke:none;}#export-svg .labelBox{stroke:#cccccc;fill:#2a2020;}#export-svg .labelText,#export-svg .labelText&gt;tspan{fill:#e0dfdf;stroke:none;}#export-svg .loopText,#export-svg .loopText&gt;tspan{fill:#e0dfdf;stroke:none;}#export-svg .loopLine{stroke-width:2px;stroke-dasharray:2,2;stroke:#cccccc;fill:#cccccc;}#export-svg .note{stroke:hsl(52.6829268293, 60%, 73.9215686275%);fill:#fff5ad;}#export-svg .noteText,#export-svg .noteText&gt;tspan{fill:#333;stroke:none;}#export-svg .activation0{fill:hsl(180, 1.5873015873%, 28.3529411765%);stroke:hsl(180, 1.5873015873%, 18.3529411765%);}#export-svg .activation1{fill:hsl(180, 1.5873015873%, 28.3529411765%);stroke:hsl(180, 1.5873015873%, 18.3529411765%);}#export-svg .activation2{fill:hsl(180, 1.5873015873%, 28.3529411765%);stroke:hsl(180, 1.5873015873%, 18.3529411765%);}#export-svg .actorPopupMenu{position:absolute;}#export-svg .actorPopupMenuPanel{position:absolute;fill:#2a2020;box-shadow:0px 8px 16px 0px rgba(0,0,0,0.2);filter:drop-shadow(3px 5px 2px rgb(0 0 0 / 0.4));}#export-svg .actor-man line{stroke:#cccccc;fill:#2a2020;}#export-svg .actor-man circle,#export-svg line{stroke:#cccccc;fill:#2a2020;stroke-width:2px;}#export-svg .node .neo-node{stroke:#ccc;}#export-svg [data-look="neo"].node rect,#export-svg [data-look="neo"].cluster rect,#export-svg [data-look="neo"].node polygon{stroke:url(#export-svg-gradient);filter:drop-shadow( 1px 2px 2px rgba(185,185,185,0.2));}#export-svg [data-look="neo"].node path{stroke:url(#export-svg-gradient);}#export-svg [data-look="neo"].node .outer-path{filter:drop-shadow( 1px 2px 2px rgba(185,185,185,0.2));}#export-svg [data-look="neo"].node .neo-line path{stroke:#cccccc;filter:none;}#export-svg [data-look="neo"].node circle{stroke:url(#export-svg-gradient);filter:drop-shadow( 1px 2px 2px rgba(185,185,185,0.2));}#export-svg [data-look="neo"].node circle .state-start{fill:#000000;}#export-svg [data-look="neo"].statediagram-cluster rect{fill:#2a2020;stroke:url(#export-svg-gradient);stroke-width:1px;}#export-svg [data-look="neo"].icon-shape .icon{fill:url(#export-svg-gradient);filter:drop-shadow( 1px 2px 2px rgba(185,185,185,0.2));}#export-svg [data-look="neo"].icon-shape .icon-neo path{stroke:url(#export-svg-gradient);filter:drop-shadow( 1px 2px 2px rgba(185,185,185,0.2));}#export-svg :root{--mermaid-font-family:"trebuchet ms",verdana,arial,sans-serif;}</style><g/><defs><symbol height="24" width="24" id="computer"><path d="M2 2v13h20v-13h-20zm18 11h-16v-9h16v9zm-10.228 6l.466-1h3.524l.467 1h-4.457zm14.228 3h-24l2-6h2.104l-1.33 4h18.45l-1.297-4h2.073l2 6zm-5-10h-14v-7h14v7z" transform="scale(.5)"/></symbol></defs><defs><symbol clip-rule="evenodd" fill-rule="evenodd" id="database"><path d="M12.258.001l.256.004.255.005.253.008.251.01.249.012.247.015.246.016.242.019.241.02.239.023.236.024.233.027.231.028.229.031.225.032.223.034.22.036.217.038.214.04.211.041.208.043.205.045.201.046.198.048.194.05.191.051.187.053.183.054.18.056.175.057.172.059.168.06.163.061.16.063.155.064.15.066.074.033.073.033.071.034.07.034.069.035.068.035.067.035.066.035.064.036.064.036.062.036.06.036.06.037.058.037.058.037.055.038.055.038.053.038.052.038.051.039.05.039.048.039.047.039.045.04.044.04.043.04.041.04.04.041.039.041.037.041.036.041.034.041.033.042.032.042.03.042.029.042.027.042.026.043.024.043.023.043.021.043.02.043.018.044.017.043.015.044.013.044.012.044.011.045.009.044.007.045.006.045.004.045.002.045.001.045v17l-.001.045-.002.045-.004.045-.006.045-.007.045-.009.044-.011.045-.012.044-.013.044-.015.044-.017.043-.018.044-.02.043-.021.043-.023.043-.024.043-.026.043-.027.042-.029.042-.03.042-.032.042-.033.042-.034.041-.036.041-.037.041-.039.041-.04.041-.041.04-.043.04-.044.04-.045.04-.047.039-.048.039-.05.039-.051.039-.052.038-.053.038-.055.038-.055.038-.058.037-.058.037-.06.037-.06.036-.062.036-.064.036-.064.036-.066.035-.067.035-.068.035-.069.035-.07.034-.071.034-.073.033-.074.033-.15.066-.155.064-.16.063-.163.061-.168.06-.172.059-.175.057-.18.056-.183.054-.187.053-.191.051-.194.05-.198.048-.201.046-.205.045-.208.043-.211.041-.214.04-.217.038-.22.036-.223.034-.225.032-.229.031-.231.028-.233.027-.236.024-.239.023-.241.02-.242.019-.246.016-.247.015-.249.012-.251.01-.253.008-.255.005-.256.004-.258.001-.258-.001-.256-.004-.255-.005-.253-.008-.251-.01-.249-.012-.247-.015-.245-.016-.243-.019-.241-.02-.238-.023-.236-.024-.234-.027-.231-.028-.228-.031-.226-.032-.223-.034-.22-.036-.217-.038-.214-.04-.211-.041-.208-.043-.204-.045-.201-.046-.198-.048-.195-.05-.19-.051-.187-.053-.184-.054-.179-.056-.176-.057-.172-.059-.167-.06-.164-.061-.159-.063-.155-.064-.151-.066-.074-.033-.072-.033-.072-.034-.07-.034-.069-.035-.068-.035-.067-.035-.066-.035-.064-.036-.063-.036-.062-.036-.061-.036-.06-.037-.058-.037-.057-.037-.056-.038-.055-.038-.053-.038-.052-.038-.051-.039-.049-.039-.049-.039-.046-.039-.046-.04-.044-.04-.043-.04-.041-.04-.04-.041-.039-.041-.037-.041-.036-.041-.034-.041-.033-.042-.032-.042-.03-.042-.029-.042-.027-.042-.026-.043-.024-.043-.023-.043-.021-.043-.02-.043-.018-.044-.017-.043-.015-.044-.013-.044-.012-.044-.011-.045-.009-.044-.007-.045-.006-.045-.004-.045-.002-.045-.001-.045v-17l.001-.045.002-.045.004-.045.006-.045.007-.045.009-.044.011-.045.012-.044.013-.044.015-.044.017-.043.018-.044.02-.043.021-.043.023-.043.024-.043.026-.043.027-.042.029-.042.03-.042.032-.042.033-.042.034-.041.036-.041.037-.041.039-.041.04-.041.041-.04.043-.04.044-.04.046-.04.046-.039.049-.039.049-.039.051-.039.052-.038.053-.038.055-.038.056-.038.057-.037.058-.037.06-.037.061-.036.062-.036.063-.036.064-.036.066-.035.067-.035.068-.035.069-.035.07-.034.072-.034.072-.033.074-.033.151-.066.155-.064.159-.063.164-.061.167-.06.172-.059.176-.057.179-.056.184-.054.187-.053.19-.051.195-.05.198-.048.201-.046.204-.045.208-.043.211-.041.214-.04.217-.038.22-.036.223-.034.226-.032.228-.031.231-.028.234-.027.236-.024.238-.023.241-.02.243-.019.245-.016.247-.015.249-.012.251-.01.253-.008.255-.005.256-.004.258-.001.258.001zm-9.258 20.499v.01l.001.021.003.021.004.022.005.021.006.022.007.022.009.023.01.022.011.023.012.023.013.023.015.023.016.024.017.023.018.024.019.024.021.024.022.025.023.024.024.025.052.049.056.05.061.051.066.051.07.051.075.051.079.052.084.052.088.052.092.052.097.052.102.051.105.052.11.052.114.051.119.051.123.051.127.05.131.05.135.05.139.048.144.049.147.047.152.047.155.047.16.045.163.045.167.043.171.043.176.041.178.041.183.039.187.039.19.037.194.035.197.035.202.033.204.031.209.03.212.029.216.027.219.025.222.024.226.021.23.02.233.018.236.016.24.015.243.012.246.01.249.008.253.005.256.004.259.001.26-.001.257-.004.254-.005.25-.008.247-.011.244-.012.241-.014.237-.016.233-.018.231-.021.226-.021.224-.024.22-.026.216-.027.212-.028.21-.031.205-.031.202-.034.198-.034.194-.036.191-.037.187-.039.183-.04.179-.04.175-.042.172-.043.168-.044.163-.045.16-.046.155-.046.152-.047.148-.048.143-.049.139-.049.136-.05.131-.05.126-.05.123-.051.118-.052.114-.051.11-.052.106-.052.101-.052.096-.052.092-.052.088-.053.083-.051.079-.052.074-.052.07-.051.065-.051.06-.051.056-.05.051-.05.023-.024.023-.025.021-.024.02-.024.019-.024.018-.024.017-.024.015-.023.014-.024.013-.023.012-.023.01-.023.01-.022.008-.022.006-.022.006-.022.004-.022.004-.021.001-.021.001-.021v-4.127l-.077.055-.08.053-.083.054-.085.053-.087.052-.09.052-.093.051-.095.05-.097.05-.1.049-.102.049-.105.048-.106.047-.109.047-.111.046-.114.045-.115.045-.118.044-.12.043-.122.042-.124.042-.126.041-.128.04-.13.04-.132.038-.134.038-.135.037-.138.037-.139.035-.142.035-.143.034-.144.033-.147.032-.148.031-.15.03-.151.03-.153.029-.154.027-.156.027-.158.026-.159.025-.161.024-.162.023-.163.022-.165.021-.166.02-.167.019-.169.018-.169.017-.171.016-.173.015-.173.014-.175.013-.175.012-.177.011-.178.01-.179.008-.179.008-.181.006-.182.005-.182.004-.184.003-.184.002h-.37l-.184-.002-.184-.003-.182-.004-.182-.005-.181-.006-.179-.008-.179-.008-.178-.01-.176-.011-.176-.012-.175-.013-.173-.014-.172-.015-.171-.016-.17-.017-.169-.018-.167-.019-.166-.02-.165-.021-.163-.022-.162-.023-.161-.024-.159-.025-.157-.026-.156-.027-.155-.027-.153-.029-.151-.03-.15-.03-.148-.031-.146-.032-.145-.033-.143-.034-.141-.035-.14-.035-.137-.037-.136-.037-.134-.038-.132-.038-.13-.04-.128-.04-.126-.041-.124-.042-.122-.042-.12-.044-.117-.043-.116-.045-.113-.045-.112-.046-.109-.047-.106-.047-.105-.048-.102-.049-.1-.049-.097-.05-.095-.05-.093-.052-.09-.051-.087-.052-.085-.053-.083-.054-.08-.054-.077-.054v4.127zm0-5.654v.011l.001.021.003.021.004.021.005.022.006.022.007.022.009.022.01.022.011.023.012.023.013.023.015.024.016.023.017.024.018.024.019.024.021.024.022.024.023.025.024.024.052.05.056.05.061.05.066.051.07.051.075.052.079.051.084.052.088.052.092.052.097.052.102.052.105.052.11.051.114.051.119.052.123.05.127.051.131.05.135.049.139.049.144.048.147.048.152.047.155.046.16.045.163.045.167.044.171.042.176.042.178.04.183.04.187.038.19.037.194.036.197.034.202.033.204.032.209.03.212.028.216.027.219.025.222.024.226.022.23.02.233.018.236.016.24.014.243.012.246.01.249.008.253.006.256.003.259.001.26-.001.257-.003.254-.006.25-.008.247-.01.244-.012.241-.015.237-.016.233-.018.231-.02.226-.022.224-.024.22-.025.216-.027.212-.029.21-.03.205-.032.202-.033.198-.035.194-.036.191-.037.187-.039.183-.039.179-.041.175-.042.172-.043.168-.044.163-.045.16-.045.155-.047.152-.047.148-.048.143-.048.139-.05.136-.049.131-.05.126-.051.123-.051.118-.051.114-.052.11-.052.106-.052.101-.052.096-.052.092-.052.088-.052.083-.052.079-.052.074-.051.07-.052.065-.051.06-.05.056-.051.051-.049.023-.025.023-.024.021-.025.02-.024.019-.024.018-.024.017-.024.015-.023.014-.023.013-.024.012-.022.01-.023.01-.023.008-.022.006-.022.006-.022.004-.021.004-.022.001-.021.001-.021v-4.139l-.077.054-.08.054-.083.054-.085.052-.087.053-.09.051-.093.051-.095.051-.097.05-.1.049-.102.049-.105.048-.106.047-.109.047-.111.046-.114.045-.115.044-.118.044-.12.044-.122.042-.124.042-.126.041-.128.04-.13.039-.132.039-.134.038-.135.037-.138.036-.139.036-.142.035-.143.033-.144.033-.147.033-.148.031-.15.03-.151.03-.153.028-.154.028-.156.027-.158.026-.159.025-.161.024-.162.023-.163.022-.165.021-.166.02-.167.019-.169.018-.169.017-.171.016-.173.015-.173.014-.175.013-.175.012-.177.011-.178.009-.179.009-.179.007-.181.007-.182.005-.182.004-.184.003-.184.002h-.37l-.184-.002-.184-.003-.182-.004-.182-.005-.181-.007-.179-.007-.179-.009-.178-.009-.176-.011-.176-.012-.175-.013-.173-.014-.172-.015-.171-.016-.17-.017-.169-.018-.167-.019-.166-.02-.165-.021-.163-.022-.162-.023-.161-.024-.159-.025-.157-.026-.156-.027-.155-.028-.153-.028-.151-.03-.15-.03-.148-.031-.146-.033-.145-.033-.143-.033-.141-.035-.14-.036-.137-.036-.136-.037-.134-.038-.132-.039-.13-.039-.128-.04-.126-.041-.124-.042-.122-.043-.12-.043-.117-.044-.116-.044-.113-.046-.112-.046-.109-.046-.106-.047-.105-.048-.102-.049-.1-.049-.097-.05-.095-.051-.093-.051-.09-.051-.087-.053-.085-.052-.083-.054-.08-.054-.077-.054v4.139zm0-5.666v.011l.001.02.003.022.004.021.005.022.006.021.007.022.009.023.01.022.011.023.012.023.013.023.015.023.016.024.017.024.018.023.019.024.021.025.022.024.023.024.024.025.052.05.056.05.061.05.066.051.07.051.075.052.079.051.084.052.088.052.092.052.097.052.102.052.105.051.11.052.114.051.119.051.123.051.127.05.131.05.135.05.139.049.144.048.147.048.152.047.155.046.16.045.163.045.167.043.171.043.176.042.178.04.183.04.187.038.19.037.194.036.197.034.202.033.204.032.209.03.212.028.216.027.219.025.222.024.226.021.23.02.233.018.236.017.24.014.243.012.246.01.249.008.253.006.256.003.259.001.26-.001.257-.003.254-.006.25-.008.247-.01.244-.013.241-.014.237-.016.233-.018.231-.02.226-.022.224-.024.22-.025.216-.027.212-.029.21-.03.205-.032.202-.033.198-.035.194-.036.191-.037.187-.039.183-.039.179-.041.175-.042.172-.043.168-.044.163-.045.16-.045.155-.047.152-.047.148-.048.143-.049.139-.049.136-.049.131-.051.126-.05.123-.051.118-.052.114-.051.11-.052.106-.052.101-.052.096-.052.092-.052.088-.052.083-.052.079-.052.074-.052.07-.051.065-.051.06-.051.056-.05.051-.049.023-.025.023-.025.021-.024.02-.024.019-.024.018-.024.017-.024.015-.023.014-.024.013-.023.012-.023.01-.022.01-.023.008-.022.006-.022.006-.022.004-.022.004-.021.001-.021.001-.021v-4.153l-.077.054-.08.054-.083.053-.085.053-.087.053-.09.051-.093.051-.095.051-.097.05-.1.049-.102.048-.105.048-.106.048-.109.046-.111.046-.114.046-.115.044-.118.044-.12.043-.122.043-.124.042-.126.041-.128.04-.13.039-.132.039-.134.038-.135.037-.138.036-.139.036-.142.034-.143.034-.144.033-.147.032-.148.032-.15.03-.151.03-.153.028-.154.028-.156.027-.158.026-.159.024-.161.024-.162.023-.163.023-.165.021-.166.02-.167.019-.169.018-.169.017-.171.016-.173.015-.173.014-.175.013-.175.012-.177.01-.178.01-.179.009-.179.007-.181.006-.182.006-.182.004-.184.003-.184.001-.185.001-.185-.001-.184-.001-.184-.003-.182-.004-.182-.006-.181-.006-.179-.007-.179-.009-.178-.01-.176-.01-.176-.012-.175-.013-.173-.014-.172-.015-.171-.016-.17-.017-.169-.018-.167-.019-.166-.02-.165-.021-.163-.023-.162-.023-.161-.024-.159-.024-.157-.026-.156-.027-.155-.028-.153-.028-.151-.03-.15-.03-.148-.032-.146-.032-.145-.033-.143-.034-.141-.034-.14-.036-.137-.036-.136-.037-.134-.038-.132-.039-.13-.039-.128-.041-.126-.041-.124-.041-.122-.043-.12-.043-.117-.044-.116-.044-.113-.046-.112-.046-.109-.046-.106-.048-.105-.048-.102-.048-.1-.05-.097-.049-.095-.051-.093-.051-.09-.052-.087-.052-.085-.053-.083-.053-.08-.054-.077-.054v4.153zm8.74-8.179l-.257.004-.254.005-.25.008-.247.011-.244.012-.241.014-.237.016-.233.018-.231.021-.226.022-.224.023-.22.026-.216.027-.212.028-.21.031-.205.032-.202.033-.198.034-.194.036-.191.038-.187.038-.183.04-.179.041-.175.042-.172.043-.168.043-.163.045-.16.046-.155.046-.152.048-.148.048-.143.048-.139.049-.136.05-.131.05-.126.051-.123.051-.118.051-.114.052-.11.052-.106.052-.101.052-.096.052-.092.052-.088.052-.083.052-.079.052-.074.051-.07.052-.065.051-.06.05-.056.05-.051.05-.023.025-.023.024-.021.024-.02.025-.019.024-.018.024-.017.023-.015.024-.014.023-.013.023-.012.023-.01.023-.01.022-.008.022-.006.023-.006.021-.004.022-.004.021-.001.021-.001.021.001.021.001.021.004.021.004.022.006.021.006.023.008.022.01.022.01.023.012.023.013.023.014.023.015.024.017.023.018.024.019.024.02.025.021.024.023.024.023.025.051.05.056.05.06.05.065.051.07.052.074.051.079.052.083.052.088.052.092.052.096.052.101.052.106.052.11.052.114.052.118.051.123.051.126.051.131.05.136.05.139.049.143.048.148.048.152.048.155.046.16.046.163.045.168.043.172.043.175.042.179.041.183.04.187.038.191.038.194.036.198.034.202.033.205.032.21.031.212.028.216.027.22.026.224.023.226.022.231.021.233.018.237.016.241.014.244.012.247.011.25.008.254.005.257.004.26.001.26-.001.257-.004.254-.005.25-.008.247-.011.244-.012.241-.014.237-.016.233-.018.231-.021.226-.022.224-.023.22-.026.216-.027.212-.028.21-.031.205-.032.202-.033.198-.034.194-.036.191-.038.187-.038.183-.04.179-.041.175-.042.172-.043.168-.043.163-.045.16-.046.155-.046.152-.048.148-.048.143-.048.139-.049.136-.05.131-.05.126-.051.123-.051.118-.051.114-.052.11-.052.106-.052.101-.052.096-.052.092-.052.088-.052.083-.052.079-.052.074-.051.07-.052.065-.051.06-.05.056-.05.051-.05.023-.025.023-.024.021-.024.02-.025.019-.024.018-.024.017-.023.015-.024.014-.023.013-.023.012-.023.01-.023.01-.022.008-.022.006-.023.006-.021.004-.022.004-.021.001-.021.001-.021-.001-.021-.001-.021-.004-.021-.004-.022-.006-.021-.006-.023-.008-.022-.01-.022-.01-.023-.012-.023-.013-.023-.014-.023-.015-.024-.017-.023-.018-.024-.019-.024-.02-.025-.021-.024-.023-.024-.023-.025-.051-.05-.056-.05-.06-.05-.065-.051-.07-.052-.074-.051-.079-.052-.083-.052-.088-.052-.092-.052-.096-.052-.101-.052-.106-.052-.11-.052-.114-.052-.118-.051-.123-.051-.126-.051-.131-.05-.136-.05-.139-.049-.143-.048-.148-.048-.152-.048-.155-.046-.16-.046-.163-.045-.168-.043-.172-.043-.175-.042-.179-.041-.183-.04-.187-.038-.191-.038-.194-.036-.198-.034-.202-.033-.205-.032-.21-.031-.212-.028-.216-.027-.22-.026-.224-.023-.226-.022-.231-.021-.233-.018-.237-.016-.241-.014-.244-.012-.247-.011-.25-.008-.254-.005-.257-.004-.26-.001-.26.001z" transform="scale(.5)"/></symbol></defs><defs><symbol height="24" width="24" id="clock"><path d="M12 2c5.514 0 10 4.486 10 10s-4.486 10-10 10-10-4.486-10-10 4.486-10 10-10zm0-2c-6.627 0-12 5.373-12 12s5.373 12 12 12 12-5.373 12-12-5.373-12-12-12zm5.848 12.459c.202.038.202.333.001.372-1.907.361-6.045 1.111-6.547 1.111-.719 0-1.301-.582-1.301-1.301 0-.512.77-5.447 1.125-7.445.034-.192.312-.181.343.014l.985 6.238 5.394 1.011z" transform="scale(.5)"/></symbol></defs><defs><marker orient="auto-start-reverse" markerHeight="12" markerWidth="12" markerUnits="userSpaceOnUse" refY="5" refX="7.9" id="arrowhead"><path d="M -1 0 L 10 5 L 0 10 z"/></marker></defs><defs><marker refY="4.5" refX="4" orient="auto" markerHeight="8" markerWidth="15" id="crosshead"><path d="M 1,2 L 6,7 M 6,2 L 1,7" stroke-width="1pt" style="stroke-dasharray: 0px, 0px;" stroke="#000000" fill="none"/></marker></defs><defs><marker orient="auto" markerHeight="28" markerWidth="20" refY="7" refX="15.5" id="filled-head"><path d="M 18,7 L9,13 L14,7 L9,1 Z"/></marker></defs><defs><marker orient="auto" markerHeight="40" markerWidth="60" refY="15" refX="15" id="sequencenumber"><circle r="6" cy="15" cx="15"/></marker></defs><g data-id="ib4c511efa6" data-et="control-structure"><line class="loopLine" y2="557" x2="1037" y1="557" x1="64"/><line class="loopLine" y2="747" x2="1037" y1="557" x1="1037"/><line class="loopLine" y2="747" x2="1037" y1="747" x1="64"/><line class="loopLine" y2="747" x2="64" y1="557" x1="64"/><line style="stroke-dasharray: 3px, 3px;" class="loopLine" y2="655" x2="1037" y1="655" x1="64"/><polygon class="labelBox" points="64,557 114,557 114,570 105.6,577 64,577"/><text class="labelText" style="font-size: 16px; font-weight: 400;" alignment-baseline="middle" dominant-baseline="middle" text-anchor="middle" y="570" x="89">alt</text><text class="loopText" style="font-size: 16px; font-weight: 400;" text-anchor="middle" y="575" x="575.5"><tspan x="575.5">[token_preference = "cookies"]</tspan></text><text class="loopText" style="font-size: 16px; font-weight: 400;" text-anchor="middle" y="673" x="550.5">[token_preference = "headers"]</text></g><text dy="1em" class="messageText" style="font-size: 16px; font-weight: 400;" alignment-baseline="middle" dominant-baseline="middle" text-anchor="middle" y="80" x="76">1. Generate Dilithium5 client keypair (public, private)</text><path marker-end="url(#arrowhead)" style="fill: none;" stroke="none" stroke-width="2" data-to="C" data-from="C" data-id="ifeb14bb37e" data-et="message" class="messageLine0" d="M 76,113 C 136,103 136,143 76,133"/><text dy="1em" class="messageText" style="font-size: 16px; font-weight: 400;" alignment-baseline="middle" dominant-baseline="middle" text-anchor="middle" y="158" x="1027">Generate Dilithium5 C3A keypair (public, private)</text><path marker-end="url(#arrowhead)" style="fill: none;" stroke="none" stroke-width="2" data-to="S" data-from="S" data-id="i57cb36c6d5" data-et="message" class="messageLine0" d="M 1027,191 C 1087,181 1087,221 1027,211"/><text dy="1em" class="messageText" style="font-size: 16px; font-weight: 400;" alignment-baseline="middle" dominant-baseline="middle" text-anchor="middle" y="236" x="549">POST /login (username, password, client's public key, token_preference=cookies|headers)</text><line marker-end="url(#arrowhead)" style="fill: none;" stroke="none" stroke-width="2" data-to="S" data-from="C" data-id="i6d8578bc90" data-et="message" class="messageLine0" y2="273" x2="1022" y1="273" x1="76"/><text dy="1em" class="messageText" style="font-size: 16px; font-weight: 400;" alignment-baseline="middle" dominant-baseline="middle" text-anchor="middle" y="288" x="1237">Verify credentials</text><line marker-end="url(#arrowhead)" style="fill: none;" stroke="none" stroke-width="2" data-to="DB" data-from="S" data-id="i50b6153b31" data-et="message" class="messageLine0" y2="321" x2="1446" y1="321" x1="1027"/><text dy="1em" class="messageText" style="font-size: 16px; font-weight: 400;" alignment-baseline="middle" dominant-baseline="middle" text-anchor="middle" y="336" x="1240">Credentials valid</text><line marker-end="url(#arrowhead)" stroke="none" stroke-width="2" data-to="S" data-from="DB" data-id="ic980e4e270" data-et="message" class="messageLine1" style="stroke-dasharray: 3px, 3px; fill: none;" y2="369" x2="1030" y1="369" x1="1449"/><text dy="1em" class="messageText" style="font-size: 16px; font-weight: 400;" alignment-baseline="middle" dominant-baseline="middle" text-anchor="middle" y="384" x="1237">Store client's public key with client_id</text><line marker-end="url(#arrowhead)" style="fill: none;" stroke="none" stroke-width="2" data-to="DB" data-from="S" data-id="i04b00e629c" data-et="message" class="messageLine0" y2="417" x2="1446" y1="417" x1="1027"/><text dy="1em" class="messageText" style="font-size: 16px; font-weight: 400;" alignment-baseline="middle" dominant-baseline="middle" text-anchor="middle" y="432" x="1027">Generate MPAAT' access and refresh tokens and sign with C3A private key</text><path marker-end="url(#arrowhead)" style="fill: none;" stroke="none" stroke-width="2" data-to="S" data-from="S" data-id="i7c71fcf72a" data-et="message" class="messageLine0" d="M 1027,469 C 1087,459 1087,499 1027,489"/><text dy="1em" class="messageText" style="font-size: 16px; font-weight: 400;" alignment-baseline="middle" dominant-baseline="middle" text-anchor="middle" y="514" x="1237">Store refresh_token (client_id, expires_at)</text><line marker-end="url(#arrowhead)" style="fill: none;" stroke="none" stroke-width="2" data-to="DB" data-from="S" data-id="iead2b3ea04" data-et="message" class="messageLine0" y2="547" x2="1446" y1="547" x1="1027"/><text dy="1em" class="messageText" style="font-size: 16px; font-weight: 400;" alignment-baseline="middle" dominant-baseline="middle" text-anchor="middle" y="607" x="552">200 OK, Set-Cookie: access_token=&lt;MPAAT&gt;, refresh_token=&lt;new&gt;</text><line marker-end="url(#arrowhead)" stroke="none" stroke-width="2" data-to="C" data-from="S" data-id="i0f73de2c63" data-et="message" class="messageLine1" style="stroke-dasharray: 3px, 3px; fill: none;" y2="640" x2="79" y1="640" x1="1025"/><text dy="1em" class="messageText" style="font-size: 16px; font-weight: 400;" alignment-baseline="middle" dominant-baseline="middle" text-anchor="middle" y="700" x="552">200 OK (MsgPack: access_token=&lt;MPAAT&gt;, refresh_token=&lt;new&gt;)</text><line marker-end="url(#arrowhead)" stroke="none" stroke-width="2" data-to="C" data-from="S" data-id="ib79f26ff3e" data-et="message" class="messageLine1" style="stroke-dasharray: 3px, 3px; fill: none;" y2="737" x2="79" y1="737" x1="1025"/><text dy="1em" class="messageText" style="font-size: 16px; font-weight: 400;" alignment-baseline="middle" dominant-baseline="middle" text-anchor="middle" y="762" x="549">2. GET /authorized (Authorization: Bearer &lt;access_token&gt;|Cookie &lt;access_token&gt;)</text><line marker-end="url(#arrowhead)" style="fill: none;" stroke="none" stroke-width="2" data-to="S" data-from="C" data-id="ie8905e813d" data-et="message" class="messageLine0" y2="795" x2="1022" y1="795" x1="76"/><text dy="1em" class="messageText" style="font-size: 16px; font-weight: 400;" alignment-baseline="middle" dominant-baseline="middle" text-anchor="middle" y="810" x="1027">Check authorization scheme for this site path</text><path marker-end="url(#arrowhead)" style="fill: none;" stroke="none" stroke-width="2" data-to="S" data-from="S" data-id="i3c6e48135e" data-et="message" class="messageLine0" d="M 1027,843 C 1087,833 1087,873 1027,863"/><text dy="1em" class="messageText" style="font-size: 16px; font-weight: 400;" alignment-baseline="middle" dominant-baseline="middle" text-anchor="middle" y="888" x="1027">Verify only access_token (MPAAT's sign, expiry)</text><path marker-end="url(#arrowhead)" style="fill: none;" stroke="none" stroke-width="2" data-to="S" data-from="S" data-id="i1911554380" data-et="message" class="messageLine0" d="M 1027,925 C 1087,915 1087,955 1027,945"/><text dy="1em" class="messageText" style="font-size: 16px; font-weight: 400;" alignment-baseline="middle" dominant-baseline="middle" text-anchor="middle" y="970" x="552">200 OK (protected data)</text><line marker-end="url(#arrowhead)" stroke="none" stroke-width="2" data-to="C" data-from="S" data-id="i7668d47fb0" data-et="message" class="messageLine1" style="stroke-dasharray: 3px, 3px; fill: none;" y2="1003" x2="79" y1="1003" x1="1025"/><text dy="1em" class="messageText" style="font-size: 16px; font-weight: 400;" alignment-baseline="middle" dominant-baseline="middle" text-anchor="middle" y="1018" x="76">3. Sign request hash with client's private key (4595 bytes)</text><path marker-end="url(#arrowhead)" style="fill: none;" stroke="none" stroke-width="2" data-to="C" data-from="C" data-id="ie86dd89c7f" data-et="message" class="messageLine0" d="M 76,1055 C 136,1045 136,1085 76,1075"/><text dy="1em" class="messageText" style="font-size: 16px; font-weight: 400;" alignment-baseline="middle" dominant-baseline="middle" text-anchor="middle" y="1100" x="549">GET /protected (Authorization: Bearer &lt;access_token&gt;|Cookie &lt;access_token&gt;, C3A-Sign: &lt;client's signature&gt;)</text><line marker-end="url(#arrowhead)" style="fill: none;" stroke="none" stroke-width="2" data-to="S" data-from="C" data-id="i4bcaf56879" data-et="message" class="messageLine0" y2="1137" x2="1022" y1="1137" x1="76"/><text dy="1em" class="messageText" style="font-size: 16px; font-weight: 400;" alignment-baseline="middle" dominant-baseline="middle" text-anchor="middle" y="1152" x="1027">Check authorization scheme for this site path</text><path marker-end="url(#arrowhead)" style="fill: none;" stroke="none" stroke-width="2" data-to="S" data-from="S" data-id="ib19b8b22be" data-et="message" class="messageLine0" d="M 1027,1185 C 1087,1175 1087,1215 1027,1205"/><text dy="1em" class="messageText" style="font-size: 16px; font-weight: 400;" alignment-baseline="middle" dominant-baseline="middle" text-anchor="middle" y="1230" x="1027">Verify access_token (MPAAT's sign, expiry)</text><path marker-end="url(#arrowhead)" style="fill: none;" stroke="none" stroke-width="2" data-to="S" data-from="S" data-id="idba3284162" data-et="message" class="messageLine0" d="M 1027,1267 C 1087,1257 1087,1297 1027,1287"/><text dy="1em" class="messageText" style="font-size: 16px; font-weight: 400;" alignment-baseline="middle" dominant-baseline="middle" text-anchor="middle" y="1312" x="1237">Get Dilithium5 public key for client</text><line marker-end="url(#arrowhead)" style="fill: none;" stroke="none" stroke-width="2" data-to="DB" data-from="S" data-id="if145ad879b" data-et="message" class="messageLine0" y2="1345" x2="1446" y1="1345" x1="1027"/><text dy="1em" class="messageText" style="font-size: 16px; font-weight: 400;" alignment-baseline="middle" dominant-baseline="middle" text-anchor="middle" y="1360" x="1240">Public key</text><line marker-end="url(#arrowhead)" stroke="none" stroke-width="2" data-to="S" data-from="DB" data-id="if1f01f3843" data-et="message" class="messageLine1" style="stroke-dasharray: 3px, 3px; fill: none;" y2="1393" x2="1030" y1="1393" x1="1449"/><text dy="1em" class="messageText" style="font-size: 16px; font-weight: 400;" alignment-baseline="middle" dominant-baseline="middle" text-anchor="middle" y="1408" x="1027">Verify Dilithium5 signature</text><path marker-end="url(#arrowhead)" style="fill: none;" stroke="none" stroke-width="2" data-to="S" data-from="S" data-id="i91783c5835" data-et="message" class="messageLine0" d="M 1027,1445 C 1087,1435 1087,1475 1027,1465"/><text dy="1em" class="messageText" style="font-size: 16px; font-weight: 400;" alignment-baseline="middle" dominant-baseline="middle" text-anchor="middle" y="1490" x="552">200 OK (highly protected data)</text><line marker-end="url(#arrowhead)" stroke="none" stroke-width="2" data-to="C" data-from="S" data-id="i01abe2794c" data-et="message" class="messageLine1" style="stroke-dasharray: 3px, 3px; fill: none;" y2="1527" x2="79" y1="1527" x1="1025"/><text dy="1em" class="messageText" style="font-size: 16px; font-weight: 400;" alignment-baseline="middle" dominant-baseline="middle" text-anchor="middle" y="1542" x="549">4. POST /refresh (Authorization: Bearer &lt;refresh-token&gt;)</text><line marker-end="url(#arrowhead)" style="fill: none;" stroke="none" stroke-width="2" data-to="S" data-from="C" data-id="i62599401e0" data-et="message" class="messageLine0" y2="1575" x2="1022" y1="1575" x1="76"/><text dy="1em" class="messageText" style="font-size: 16px; font-weight: 400;" alignment-baseline="middle" dominant-baseline="middle" text-anchor="middle" y="1590" x="1237">Check refresh_token (valid, not revoked)</text><line marker-end="url(#arrowhead)" style="fill: none;" stroke="none" stroke-width="2" data-to="DB" data-from="S" data-id="i4eed0e97dc" data-et="message" class="messageLine0" y2="1623" x2="1446" y1="1623" x1="1027"/><text dy="1em" class="messageText" style="font-size: 16px; font-weight: 400;" alignment-baseline="middle" dominant-baseline="middle" text-anchor="middle" y="1638" x="1240">Refresh token valid</text><line marker-end="url(#arrowhead)" stroke="none" stroke-width="2" data-to="S" data-from="DB" data-id="i6cc73067f9" data-et="message" class="messageLine1" style="stroke-dasharray: 3px, 3px; fill: none;" y2="1671" x2="1030" y1="1671" x1="1449"/><text dy="1em" class="messageText" style="font-size: 16px; font-weight: 400;" alignment-baseline="middle" dominant-baseline="middle" text-anchor="middle" y="1686" x="552">200 OK (new access_token, [new refresh_token])</text><line marker-end="url(#arrowhead)" stroke="none" stroke-width="2" data-to="C" data-from="S" data-id="idf2670768e" data-et="message" class="messageLine1" style="stroke-dasharray: 3px, 3px; fill: none;" y2="1719" x2="79" y1="1719" x1="1025"/><text dy="1em" class="messageText" style="font-size: 16px; font-weight: 400;" alignment-baseline="middle" dominant-baseline="middle" text-anchor="middle" y="1734" x="549">5. POST /some-request (Authorization: Cookie &lt;access_token&gt;, Cookie &lt;refresh-token&gt;)</text><line marker-end="url(#arrowhead)" style="fill: none;" stroke="none" stroke-width="2" data-to="S" data-from="C" data-id="ia0416b6c54" data-et="message" class="messageLine0" y2="1767" x2="1022" y1="1767" x1="76"/><text dy="1em" class="messageText" style="font-size: 16px; font-weight: 400;" alignment-baseline="middle" dominant-baseline="middle" text-anchor="middle" y="1782" x="1027">Check authorization scheme for this site path</text><path marker-end="url(#arrowhead)" style="fill: none;" stroke="none" stroke-width="2" data-to="S" data-from="S" data-id="i7214f0e920" data-et="message" class="messageLine0" d="M 1027,1815 C 1087,1805 1087,1845 1027,1835"/><text dy="1em" class="messageText" style="font-size: 16px; font-weight: 400;" alignment-baseline="middle" dominant-baseline="middle" text-anchor="middle" y="1860" x="1027">Verify access_token (MPAAT's sign, expiry) - EXPIRED</text><path marker-end="url(#arrowhead)" style="fill: none;" stroke="none" stroke-width="2" data-to="S" data-from="S" data-id="i7d5012f47f" data-et="message" class="messageLine0" d="M 1027,1897 C 1087,1887 1087,1927 1027,1917"/><text dy="1em" class="messageText" style="font-size: 16px; font-weight: 400;" alignment-baseline="middle" dominant-baseline="middle" text-anchor="middle" y="1942" x="1237">Check refresh_token (valid, not revoked)</text><line marker-end="url(#arrowhead)" style="fill: none;" stroke="none" stroke-width="2" data-to="DB" data-from="S" data-id="i05cfaaf2d2" data-et="message" class="messageLine0" y2="1975" x2="1446" y1="1975" x1="1027"/><text dy="1em" class="messageText" style="font-size: 16px; font-weight: 400;" alignment-baseline="middle" dominant-baseline="middle" text-anchor="middle" y="1990" x="1240">Refresh token valid</text><line marker-end="url(#arrowhead)" stroke="none" stroke-width="2" data-to="S" data-from="DB" data-id="i7d3533df7b" data-et="message" class="messageLine1" style="stroke-dasharray: 3px, 3px; fill: none;" y2="2023" x2="1030" y1="2023" x1="1449"/><text dy="1em" class="messageText" style="font-size: 16px; font-weight: 400;" alignment-baseline="middle" dominant-baseline="middle" text-anchor="middle" y="2038" x="552">200 OK, Set-Cookie: access_token=&lt;MPAAT&gt;, refresh_token=&lt;new&gt;</text><line marker-end="url(#arrowhead)" stroke="none" stroke-width="2" data-to="C" data-from="S" data-id="iced159bd7d" data-et="message" class="messageLine1" style="stroke-dasharray: 3px, 3px; fill: none;" y2="2071" x2="79" y1="2071" x1="1025"/><text dy="1em" class="messageText" style="font-size: 16px; font-weight: 400;" alignment-baseline="middle" dominant-baseline="middle" text-anchor="middle" y="2086" x="549">6. POST /logout (C3A-Refresh: &lt;token&gt;|Cookie &lt;refresh-token&gt;)</text><line marker-end="url(#arrowhead)" style="fill: none;" stroke="none" stroke-width="2" data-to="S" data-from="C" data-id="i53dcb541f8" data-et="message" class="messageLine0" y2="2123" x2="1022" y1="2123" x1="76"/><text dy="1em" class="messageText" style="font-size: 16px; font-weight: 400;" alignment-baseline="middle" dominant-baseline="middle" text-anchor="middle" y="2138" x="1237">Revoke refresh_token and client's public key</text><line marker-end="url(#arrowhead)" style="fill: none;" stroke="none" stroke-width="2" data-to="DB" data-from="S" data-id="i624983519f" data-et="message" class="messageLine0" y2="2171" x2="1446" y1="2171" x1="1027"/><text dy="1em" class="messageText" style="font-size: 16px; font-weight: 400;" alignment-baseline="middle" dominant-baseline="middle" text-anchor="middle" y="2186" x="1240">Revoked</text><line marker-end="url(#arrowhead)" stroke="none" stroke-width="2" data-to="S" data-from="DB" data-id="i1992d3a8dd" data-et="message" class="messageLine1" style="stroke-dasharray: 3px, 3px; fill: none;" y2="2219" x2="1030" y1="2219" x1="1449"/><text dy="1em" class="messageText" style="font-size: 16px; font-weight: 400;" alignment-baseline="middle" dominant-baseline="middle" text-anchor="middle" y="2234" x="552">200 OK (logged out)</text><line marker-end="url(#arrowhead)" stroke="none" stroke-width="2" data-to="C" data-from="S" data-id="i0db8fb7f3c" data-et="message" class="messageLine1" style="stroke-dasharray: 3px, 3px; fill: none;" y2="2271" x2="79" y1="2271" x1="1025"/></svg>